<?xml version="1.0" encoding="UTF-8"?>
<svg version="1.1" viewBox="0 0 1600 1384" width="1280" height="1280" xmlns="http://www.w3.org/2000/svg">
<path transform="translate(0)" d="m0 0h1600v1384h-1600v-1384z" fill="#FDFDFD"/>
<path transform="translate(1599,13)" d="m0 0h1v1371h-1473c1.13-3.4 1.71-3.71 4.56-5.62 9.18-6.77 14.1-15 19.4-24.9 3.54-6.59 7.33-12.6 12.1-18.4 0.651-0.799 0.651-0.799 1.31-1.61 5.36-6.54 10.9-12.7 17-18.6 11.1-10.8 16.6-22.1 20.3-37 2.55-9.54 6.25-15.7 14.4-21.3 0.992-0.701 0.992-0.701 2-1.42 4.92-3.45 9.92-6.78 14.9-10.1 12.3-8.18 23.9-17.2 35.6-26.2 2.08-1.6 4.16-3.19 6.25-4.78 9.68-7.38 19-15.1 28.3-23 3.41-2.89 6.85-5.72 10.3-8.52 5.38-4.37 10.4-9.05 15.5-13.8 2.4-2.23 4.84-4.4 7.32-6.54 3.47-2.99 6.66-6.21 9.88-9.47 2.14-2.11 4.45-3.93 6.81-5.78 3.44-3.35 6.71-6.82 9.94-10.4 4.4-4.83 8.85-9.61 13.3-14.4 4.07-4.35 8.1-8.72 12-13.2 2.85-3.25 5.8-6.42 8.73-9.6 2.48-2.7 4.92-5.43 7.29-8.23 8.98-10.3 18.9-19.9 29.8-28.2l2.75-2.19c13-10.2 27.4-17.5 42.2-24.7 11.7-5.8 23.1-11.8 34.1-19.1 1.04-0.686 1.04-0.686 2.1-1.39 28.1-18.6 51.2-39.6 60.8-72.7 3.4-11.1 12.2-17.3 21-24.3 3.71-3.1 7.23-6.37 10.8-9.68l1.97-1.86c0.63-0.593 1.26-1.19 1.91-1.8 4.2-3.96 8.53-7.75 12.9-11.5 1.75-1.49 3.51-2.99 5.26-4.48 0.604-0.515 1.21-1.03 1.83-1.56 3.95-3.38 7.8-6.84 11.6-10.4 3.63-3.37 7.32-6.59 11.2-9.69 5.04-4.05 9.73-8.4 14.4-12.8 4.31-4.04 8.79-7.79 13.4-11.5 4.42-3.67 8.59-7.61 12.8-11.5 2.96-2.76 5.98-5.43 9.04-8.08 2.34-2.04 4.65-4.12 6.96-6.21 3.62-3.27 7.27-6.5 10.9-9.7 2.31-2.03 4.59-4.11 6.86-6.18 3.38-3.05 6.82-5.97 10.4-8.81 6.07-4.9 11.7-10.2 17.4-15.6 3.13-2.94 6.31-5.8 9.57-8.6 2.26-1.97 4.47-3.99 6.69-6 3.36-3.03 6.78-5.93 10.3-8.75 5.6-4.53 10.8-9.42 16-14.4 6.1-5.8 12.4-11.3 18.9-16.8 5.96-5.06 11.8-10.2 17.5-15.6 3.45-3.22 6.95-6.36 10.5-9.45 2.34-2.04 4.65-4.12 6.96-6.21 3.62-3.26 7.26-6.49 10.9-9.69 3.24-2.85 6.43-5.74 9.63-8.63 2.11-1.89 4.23-3.76 6.37-5.62 3.17-2.76 6.28-5.59 9.38-8.44 3.72-3.4 7.51-6.65 11.4-9.81 3.71-2.99 7.08-6.08 10.4-9.5 2.34-2.26 4.84-4.27 7.38-6.31 3.85-3.1 7.4-6.28 10.8-9.83 2.39-2.4 4.95-4.59 7.52-6.81 2.29-1.99 4.53-4.01 6.77-6.05 3.39-3.06 6.82-6.06 10.3-9.01 6.46-5.48 12.7-11.1 18.9-16.9 3.66-3.45 7.36-6.82 11.2-10.1 2.71-2.38 5.37-4.82 8.02-7.27 3.96-3.64 7.95-7.24 12-10.8 4.04-3.53 8-7.14 12-10.7 5.28-4.77 10.6-9.52 15.9-14.2 3.24-2.85 6.43-5.75 9.64-8.64 2.06-1.85 4.14-3.68 6.24-5.49 3.63-3.16 7.16-6.42 10.7-9.69 7.62-7.06 15.5-13.8 23.3-20.6 4.87-4.17 4.87-4.17 9.72-8.36 0.558-0.483 1.12-0.967 1.69-1.46 1.38-1.26 2.72-2.57 4.04-3.89 3.11-3.1 6.3-6.1 9.52-9.08 0.622-0.577 1.24-1.15 1.88-1.75 3.75-3.47 7.53-6.88 11.4-10.2 5.94-5.16 11.7-10.5 17.5-15.8 3.08-2.8 6.17-5.58 9.31-8.31 3.9-3.39 7.7-6.88 11.5-10.4 3.17-2.92 6.36-5.81 9.56-8.69 3.69-3.31 7.35-6.65 11-10 4.47-4.11 8.97-8.19 13.5-12.2 2.72-2.45 5.42-4.91 8.13-7.38 3.08-2.8 6.17-5.58 9.31-8.31 3.95-3.43 7.79-6.97 11.6-10.5 2.75-2.53 5.53-5.04 8.36-7.48 4.18-3.62 8.23-7.4 12.3-11.2 2.89-2.68 5.8-5.33 8.78-7.9 4.11-3.56 8.09-7.26 12.1-11 4.93-4.57 9.92-9.07 14.9-13.5 5.4-4.84 10.8-9.71 16.1-14.6 3.22-2.96 6.44-5.89 9.75-8.75 4.44-3.84 8.7-7.86 13-11.9 3.62-3.37 7.28-6.67 11-9.9 3.45-3.05 6.82-6.19 10.2-9.32 4.07-3.77 8.18-7.49 12.3-11.2 3.1-2.8 6.16-5.64 9.23-8.48 3.4-3.15 6.8-6.28 10.3-9.31 4.37-3.78 8.58-7.73 12.8-11.7 3.03-2.83 6.09-5.61 9.22-8.33 4.07-3.54 8.01-7.22 11.9-10.9 5.97-5.62 12-11.2 18.1-16.6 6.62-5.92 13.2-11.9 19.7-17.9 7.53-6.97 15.1-13.9 22.7-20.7 3.39-3.06 6.74-6.14 10.1-9.23 3.12-2.86 6.25-5.7 9.4-8.52 6.66-5.98 13.2-12.1 19.8-18.2 11-10.2 11-10.2 15.2-13.8 3.77-3.26 7.42-6.66 11.1-10.1 5.52-5.15 11.1-10.2 16.9-15.1 3.54-3.01 6.89-6.1 10.1-9.43 3.44-3.52 6.9-6.97 10.6-10.2 9.65-8.38 18.5-16.7 26.4-26.8 1.64-2.03 3.29-4.03 5-6z" fill="#FDFDFD"/>
<path transform="translate(1582)" d="m0 0h18c0.717 11.6 0.717 11.6-1.05 15.1-1.56 1.75-3.24 3.32-4.95 4.93-1.29 1.61-2.56 3.24-3.81 4.88-5.63 7.07-12 13.2-18.9 19.1-1.9 1.67-3.76 3.37-5.6 5.1-0.581 0.544-1.16 1.09-1.76 1.65-1.16 1.09-2.32 2.19-3.47 3.29-2.48 2.32-4.22 3.91-7.48 5-0.33 0.99-0.66 1.98-1 3-1.71 1.75-1.71 1.75-3.81 3.56-1.03 0.899-1.03 0.899-2.08 1.82-2.11 1.62-2.11 1.62-4.3 2.65-2.16 0.9-2.16 0.9-2.8 3.97-1.5 1.51-1.5 1.51-3.44 3.12-1.09 0.928-1.09 0.928-2.21 1.88-0.777 0.66-1.55 1.32-2.36 2-6.37 5.64-12.6 11.4-18.8 17.2-2.99 2.79-6.02 5.53-9.11 8.22-4.08 3.55-8.01 7.23-11.9 10.9-5.18 4.88-10.4 9.71-15.7 14.5-2.83 2.54-5.63 5.1-8.42 7.67-3.65 3.35-7.31 6.69-11 10-5.19 4.66-10.3 9.37-15.5 14.1-3.01 2.76-6.01 5.52-9.02 8.27-2.55 2.34-5.1 4.68-7.65 7.02-8.62 7.93-8.62 7.93-12.7 11.4-4.61 3.99-9.02 8.18-13.5 12.3-6.73 6.3-13.5 12.6-20.5 18.6-4.71 4.08-9.22 8.37-13.8 12.6-3.7 3.46-7.43 6.85-11.3 10.1-3.3 2.93-6.5 5.95-9.72 8.97-4.41 4.13-8.83 8.22-13.4 12.2-2.91 2.56-5.74 5.2-8.59 7.84-4.06 3.77-8.15 7.47-12.3 11.1-3.52 3.11-6.94 6.31-10.4 9.51-2.87 2.66-5.75 5.28-8.71 7.84-3.77 3.26-7.42 6.66-11.1 10.1-4.24 3.95-8.5 7.85-12.9 11.6-2.87 2.53-5.68 5.14-8.49 7.74-6.71 6.22-13.5 12.4-20.4 18.4-4.47 3.89-8.78 7.94-13.1 12-3.66 3.41-7.36 6.76-11.2 10-2.53 2.21-5.01 4.47-7.49 6.74-3.1 2.83-6.2 5.63-9.38 8.38-4.15 3.61-8.17 7.34-12.2 11.1-4.1 3.79-8.23 7.54-12.4 11.3-2.86 2.58-5.69 5.17-8.53 7.78-5.3 4.87-10.6 9.69-16 14.5-0.846 0.763-1.69 1.53-2.56 2.31-3.75 3.38-7.5 6.75-11.3 10.1-3.43 2.98-6.78 6.05-10.1 9.12-3.95 3.63-7.92 7.22-12 10.7-1.57 1.38-3.12 2.78-4.66 4.2l-2.73 2.51c-0.833 0.772-1.67 1.54-2.52 2.34-2.1 1.72-2.1 1.72-4.1 1.72-0.33 0.99-0.66 1.98-1 3-1.46 1.47-1.46 1.47-3.38 3.06-3.44 2.91-6.8 5.89-10.1 8.94-3.79 3.46-7.61 6.87-11.5 10.2-4.84 4.24-9.59 8.57-14.4 12.9-4.94 4.47-9.94 8.85-15 13.2-5.52 4.76-10.9 9.62-16.3 14.6-3.39 3.15-6.83 6.23-10.3 9.26-2.73 2.41-5.41 4.87-8.09 7.34-3.91 3.6-7.86 7.14-11.9 10.6-2.74 2.42-5.43 4.9-8.12 7.38-3.96 3.64-7.95 7.24-12 10.8-4.04 3.53-8 7.14-12 10.7-9.49 8.57-9.49 8.57-13.9 12.4-3.23 2.81-6.4 5.68-9.56 8.56-3.79 3.45-7.6 6.86-11.5 10.2-2.36 2.07-4.7 4.17-7.03 6.28-3.62 3.26-7.26 6.49-10.9 9.69-2.37 2.08-4.72 4.2-7.06 6.31-2.98 2.69-5.97 5.36-9 8-4.72 4.11-9.36 8.31-14 12.5-6.96 6.28-13.9 12.6-21.1 18.6-6.35 5.38-12.6 10.9-18.6 16.6-5 4.72-10.1 9.17-15.5 13.5-4.71 3.92-9.13 8.15-13.6 12.3-3.02 2.83-6.11 5.57-9.24 8.27-2.47 2.16-4.87 4.38-7.29 6.61-3.56 3.25-7.17 6.37-10.9 9.38-6.05 4.88-11.7 10.2-17.3 15.5-3.13 2.94-6.31 5.8-9.57 8.6-2.26 1.97-4.47 3.99-6.69 6-3.38 3.05-6.82 5.97-10.4 8.81-5.33 4.3-10.3 8.94-15.2 13.6-4.58 4.31-9.31 8.3-14.2 12.2-2.69 2.23-5.07 4.64-7.49 7.15-2.22 2.15-4.57 4.05-6.98 5.98-4.29 3.45-8.36 7.05-12.4 10.8-4.86 4.56-9.89 8.81-15.1 13-2.1 1.75-4.01 3.54-5.91 5.51-2.69 2.79-5.54 5.2-8.56 7.62-4.5 3.62-8.74 7.42-12.9 11.4-4.06 3.82-8.14 7.51-12.5 11-5.7 4.56-11 9.52-16.3 14.5-4.72 4.42-9.6 8.65-14.6 12.8-3.07 2.58-6.1 5.19-9.11 7.84-1.24 1.09-2.49 2.15-3.76 3.2-5.27 5.04-6.94 11.7-9.17 18.4-15.6 47.2-64.1 71.7-106 92.8-16.4 8.33-30.1 17.9-43.9 29.9l-2.2 1.86c-10.3 8.76-10.3 8.76-18.8 19.1h-2c-0.263 0.586-0.527 1.17-0.798 1.77-1.26 2.32-2.61 3.93-4.43 5.83-0.639 0.673-1.28 1.35-1.94 2.04-0.667 0.694-1.33 1.39-2.02 2.1-4.51 4.72-8.93 9.47-13.2 14.4-2.69 3.09-5.47 6.09-8.25 9.1-2.5 2.71-4.98 5.43-7.44 8.18-0.499 0.555-0.998 1.11-1.51 1.68-0.963 1.07-1.92 2.15-2.88 3.22-1.14 1.26-2.33 2.46-3.53 3.66h-2l-1 3h-2l-1 3c-1.57 1.54-1.57 1.54-3.56 3.19-2.95 2.5-5.73 5.05-8.44 7.81-3.17 3.21-6.45 6.22-9.88 9.16-2.37 2.06-4.68 4.17-7 6.28-4.03 3.64-8.19 7.06-12.4 10.4-2.98 2.39-5.89 4.85-8.8 7.33-12.1 10.3-24.4 20.1-37.2 29.4-2.86 2.09-5.7 4.19-8.52 6.34-9.21 7.05-18.7 13.6-28.3 20.1-14.7 9.87-20.6 15.6-24.9 32.9-3.8 15-12.6 24.9-23.4 35.5-4.9 4.84-9.24 10-13.5 15.5-0.642 0.802-1.28 1.6-1.95 2.43-4.53 5.88-8.02 12.1-11.5 18.6-4.08 7.65-8.14 14-14.6 19.9-0.901 0.841-0.901 0.841-1.82 1.7-3.74 3.3-3.74 3.3-6.18 3.3l-1 3h-127l-0.125-54.3c-0.0182-5.66-0.0364-11.3-0.0552-17.2-0.00903-6.91-0.00903-6.91-0.0107-10.1-0.00308-2.26-0.0101-4.52-0.0203-6.78-0.0146-3.42-0.0167-6.84-0.0159-10.3-0.0072-1.01-0.0144-2.02-0.0218-3.06 0.00413-1.38 0.00413-1.38 0.00835-2.79-0.00184-0.801-0.00369-1.6-0.00559-2.43 0.246-2.07 0.246-2.07 2.25-5.07l1.26-2.02c6.01-9.41 12.6-14.8 22.1-20.5 0.677-0.405 1.35-0.811 2.05-1.23l1.85-1.09c4.17-2.82 5.39-5.59 7.01-10.3 2.73-7.29 5.68-13.3 12.4-17.5 4.32-1.87 7.36-0.962 11.7 0.617l2.59 1.07c0.897 0.353 1.79 0.706 2.72 1.07 1.69 0.672 3.38 1.36 5.05 2.06 10.5 4.1 21.6 1.63 31.8-2.61 7.61-3.62 14.2-7.84 20.5-13.5l2.26-2.05c4.43-4.23 8.2-8.75 11.9-13.6 3.57-4.75 6.89-8.99 11.9-12.3 2.62 0.0625 2.62 0.0625 5 1 2.97 0.914 4.43 1.24 7.33 0.0234 12.4-8.22 23.9-17.8 34.7-28l1.47-1.35c14.9-13.8 25.9-29.7 33.3-48.6 0.675-1.69 1.44-3.35 2.22-5 2.95-1.24 4.8-1.41 7.85-0.371 0.647 0.267 1.29 0.534 1.96 0.809 4.54 1.84 8.33 2.54 13.2 1.56 4.02-2.05 7.53-4.67 11.1-7.38 2.05-1.48 4.1-2.96 6.14-4.45 0.986-0.722 1.97-1.44 2.99-2.19 3.46-2.51 6.98-4.9 10.6-7.24 1.18-0.779 2.35-1.56 3.53-2.34 1.22-0.805 2.44-1.61 3.66-2.41 21.7-14.3 43.2-29.1 63-46 0.764-0.637 0.764-0.637 1.54-1.29 6.92-5.81 12.2-11.1 15.5-19.7 0.806-2.04 1.62-4.09 2.44-6.12 0.349-0.931 0.699-1.86 1.06-2.82 3.96-8.04 8.58-12.3 16.6-16.2 5.45-2.75 9.82-5.17 13.9-9.81 0.536-0.55 1.07-1.1 1.62-1.67 5.47-6.04 8.55-13 11.2-20.6 2.34-6.01 6.02-9.31 11.8-12 3.31-0.75 3.31-0.75 6.18-1.13l3.2-0.434c1-0.11 2-0.219 3.04-0.332 4-1.18 5.37-2.52 7.9-5.86 1.58-3.67 2.76-7.44 3.94-11.2 3.74-12.1 9.16-23.5 20.7-29.8 4.06-2.13 8.2-4.06 12.4-5.93 0.918-0.414 1.84-0.828 2.78-1.25 4.32-1.74 8.46-2.82 13.1-3.48 9.78-1.14 9.78-1.14 18.1-5.86 2.1-2.89 2.1-2.89 3.64-5.85 1.53-2.72 2.79-3.96 5.44-5.56 2.5-0.5 2.5-0.5 5 0 2.19 2.44 2.19 2.44 4 5 0.66 0.33 1.32 0.66 2 1v2c4.44-2.01 7.66-4.27 11.2-7.62 3.66-3.41 7.35-6.68 11.2-9.81 4.02-3.24 7.85-6.61 11.6-10.1 4.35-4.05 8.84-7.82 13.5-11.5 3.41-2.76 6.62-5.72 9.86-8.68 2.61-2.32 5.28-4.53 8-6.72 3.8-3.08 7.46-6.25 11.1-9.56 4.47-4.11 9.09-7.97 13.8-11.8 2.63-2.17 5.16-4.42 7.68-6.71 4.3-3.92 8.76-7.59 13.3-11.2 2.64-2.19 5.19-4.44 7.72-6.75 4.3-3.92 8.76-7.59 13.3-11.2 2.64-2.19 5.19-4.44 7.72-6.75 4.3-3.92 8.76-7.59 13.3-11.2 2.64-2.19 5.19-4.44 7.72-6.75 4.3-3.92 8.76-7.59 13.3-11.2 2.64-2.19 5.19-4.44 7.72-6.75 4.2-3.82 8.54-7.41 12.9-11 4.23-3.49 8.36-7.1 12.5-10.7 3.72-3.23 7.47-6.4 11.3-9.49 4.69-3.79 9.12-7.82 13.6-11.9 3.3-2.95 6.74-5.68 10.2-8.41 2.57-2.08 5.02-4.26 7.46-6.5 3.23-2.94 6.5-5.74 9.94-8.44 3.64-2.87 7.09-5.86 10.5-9 4.41-4.06 8.96-7.89 13.6-11.7 3.32-2.71 6.57-5.49 9.82-8.28 4.55-3.91 9.1-7.81 13.7-11.7 0.533-0.45 1.07-0.901 1.61-1.36 2.14-1.81 4.28-3.62 6.43-5.43 6.15-5.19 12.3-10.4 18.4-15.6 6.11-5.24 12.2-10.4 18.4-15.6 2.16-1.83 4.32-3.65 6.48-5.48 1.08-0.916 2.16-1.83 3.25-2.75 2.74-2.31 5.47-4.63 8.2-6.95 5.11-4.34 10.2-8.64 15.4-12.9 4.09-3.33 8.04-6.78 12-10.3 2.42-2.13 4.91-4.17 7.41-6.2 4.49-3.65 8.89-7.39 13.2-11.2 8.57-7.46 17.2-14.8 26-22 5.12-4.17 10.1-8.49 15.1-12.8 4.51-3.92 9.1-7.73 13.7-11.5 3.92-3.22 7.76-6.54 11.6-9.86 3.61-3.1 7.25-6.14 10.9-9.14 3.56-2.88 6.99-5.85 10.4-8.94 3.73-3.4 7.59-6.51 11.6-9.57 3.37-2.68 6.51-5.59 9.68-8.49 3.47-3.1 7.07-6.01 10.7-8.94 3.12-2.55 6.21-5.14 9.29-7.75 0.542-0.46 1.08-0.92 1.64-1.39 1.66-1.41 3.32-2.82 4.98-4.23 7.01-5.96 14-11.9 21.2-17.7 3.69-3.03 7.33-6.13 11-9.22 3.47-2.95 6.99-5.85 10.5-8.72 3.55-2.89 6.99-5.85 10.4-8.94 3.93-3.58 8-6.92 12.2-10.2 3.29-2.65 6.5-5.4 9.7-8.16 5.03-4.34 10.1-8.59 15.3-12.8 3.12-2.56 6.2-5.16 9.28-7.78 3.95-3.35 7.92-6.67 11.9-9.94 4.86-3.96 9.62-8.03 14.4-12.1 4.39-3.77 8.85-7.45 13.3-11.1 3.34-2.76 6.63-5.58 9.91-8.41 4.69-4.05 9.45-7.97 14.3-11.8 3.27-2.64 6.44-5.38 9.62-8.12 4.74-4.09 9.54-8.07 14.4-11.9 3.61-2.91 7.14-5.91 10.7-8.92 3.41-2.9 6.85-5.75 10.3-8.57 4.27-3.47 8.46-7.03 12.6-10.6 4.69-4.05 9.45-7.97 14.3-11.8 3.27-2.64 6.44-5.38 9.62-8.12 4.71-4.07 9.49-8.02 14.4-11.9 3.27-2.64 6.44-5.38 9.62-8.12 4.74-4.09 9.54-8.07 14.4-11.9 3.61-2.91 7.14-5.91 10.7-8.92 4.32-3.67 8.69-7.26 13.1-10.8 3.07-2.53 6.09-5.1 9.11-7.68 4.56-3.89 9.21-7.64 13.9-11.3 4.67-3.63 9.17-7.38 13.6-11.4 4.27-3.8 8.75-7.36 13.2-11 6.47-5.26 12.9-10.6 19.2-16 3.19-2.71 6.42-5.36 9.7-7.95 4.09-3.24 8.05-6.6 12-10 7.34-6.32 14.8-12.5 22.4-18.4 4.34-3.35 8.52-6.89 12.7-10.4 4.24-3.61 8.53-7.15 12.9-10.7 2.4-1.97 4.78-3.95 7.16-5.95 19.3-16.2 19.3-16.2 30.9-20.6v-1z" fill="#000102"/>
<path transform="translate(0,1293)" d="m0 0c1.65 1.65 3.3 3.3 5 5 4.47 4.23 8.98 8.06 14.1 11.4 8.07 5.55 12.7 13.7 18 21.8 15.8 24.2 15.8 24.2 38.9 39.8 5.46 0.445 9.68-0.665 14.8-2.44 2.23-0.559 2.23-0.559 5.23 0.441 1.68 1.67 1.68 1.67 3.44 3.75 0.608 0.719 1.22 1.44 1.84 2.18 0.567 0.683 1.13 1.37 1.72 2.07 0.804 0.949 1.61 1.9 2.44 2.88 1.56 2.12 1.56 2.12 1.56 4.12h-107v-91z" fill="#FDFDFD"/>
</svg>
